<svg width="16" height="16" viewBox="0 0 16 16" fill="none" xmlns="http://www.w3.org/2000/svg">
<rect width="16" height="16" rx="0.625001" fill="#333333"/>
<path d="M4.142 11.7116C4.03829 11.728 3.91275 11.7253 3.76538 11.7034C3.618 11.6871 3.45971 11.657 3.2905 11.6134C3.20317 11.5861 3.1404 11.5533 3.10219 11.5151C3.06944 11.4769 3.01213 11.406 2.93025 11.3023C2.87567 11.2204 2.84019 11.1276 2.82381 11.0239C2.8129 10.9202 2.82654 10.8274 2.86475 10.7455C2.90842 10.6636 2.97938 10.6145 3.07763 10.5981C3.12129 10.5872 3.17315 10.5981 3.23319 10.6309C3.29869 10.6582 3.36692 10.6936 3.43788 10.7373C3.5525 10.8028 3.67532 10.8683 3.80632 10.9338C3.93732 11.0048 4.0574 11.0321 4.16657 11.0157C4.24298 10.9993 4.33305 10.9884 4.43675 10.9829C4.54592 10.9829 4.64963 10.9748 4.74788 10.9584C4.85159 10.942 4.93346 10.912 4.99351 10.8683C5.2828 10.6718 5.4984 10.5162 5.64032 10.4016C5.78224 10.2815 5.85319 10.2215 5.85319 10.2215C5.86411 10.1997 5.88322 10.1833 5.91051 10.1724C5.94326 10.156 5.98147 10.1396 6.02513 10.1232C6.05788 10.0905 6.10974 10.0386 6.1807 9.96769C6.25165 9.89127 6.31988 9.81758 6.38538 9.74662C6.45634 9.67566 6.50001 9.63473 6.51638 9.62381C6.5273 9.57468 6.53822 9.53648 6.54913 9.50918C6.56005 9.47643 6.56551 9.44368 6.56551 9.41093C6.60918 9.36727 6.66649 9.27721 6.73745 9.14075C6.81386 8.99883 6.89028 8.84327 6.9667 8.67406C7.04311 8.49939 7.0977 8.3411 7.13045 8.19918C7.20141 7.89897 7.22597 7.62606 7.20413 7.38043C7.1823 7.13481 7.11953 6.91374 7.01582 6.71724C6.91211 6.52074 6.77293 6.3488 6.59826 6.20143C6.53822 6.1523 6.45634 6.10045 6.35263 6.04587C6.24892 5.98582 6.14249 5.93124 6.03332 5.88212C5.92415 5.82753 5.8259 5.78659 5.73857 5.7593C5.65669 5.73201 5.60757 5.72109 5.59119 5.72655C5.56936 5.73201 5.52569 5.81661 5.46019 5.98037C5.40015 6.13866 5.32374 6.34335 5.23094 6.59443C5.14361 6.84551 5.04809 7.1157 4.94438 7.40499C4.84613 7.68883 4.75061 7.95901 4.65782 8.21556C4.63053 8.31927 4.59505 8.42843 4.55138 8.54306C4.51317 8.65768 4.48042 8.75866 4.45313 8.846C4.42584 8.92787 4.41219 8.98245 4.41219 9.00975C4.35215 9.10254 4.28938 9.24446 4.22388 9.4355C4.15838 9.62654 4.1038 9.89946 4.06013 10.2542C4.011 10.4398 3.97552 10.5954 3.95369 10.7209C3.93186 10.841 3.91002 10.8983 3.88819 10.8929C3.88819 10.8929 3.88546 10.9174 3.88 10.9666C3.87454 11.0211 3.86363 11.0566 3.84725 11.073C3.84725 11.1058 3.8145 11.1276 3.749 11.1385C3.6835 11.1494 3.60709 11.1358 3.51975 11.0976C3.43242 11.0594 3.35054 10.9857 3.27413 10.8765C3.25775 10.8165 3.24411 10.7291 3.23319 10.6145C3.22773 10.4944 3.24684 10.3552 3.2905 10.1969C3.31779 10.0932 3.356 9.9595 3.40513 9.79575C3.45425 9.632 3.50884 9.46279 3.56888 9.28812C3.62892 9.11345 3.6835 8.95243 3.73263 8.80506C3.78721 8.65768 3.82542 8.54852 3.84725 8.47756C3.88546 8.38477 3.94004 8.2101 4.011 7.95356C4.05467 7.81164 4.09834 7.66972 4.142 7.52781C4.19113 7.38589 4.23752 7.26035 4.28119 7.15118C4.32486 7.03655 4.35488 6.96287 4.37125 6.93012C4.39855 6.85916 4.4313 6.74453 4.4695 6.58624C4.51317 6.42249 4.57867 6.23691 4.666 6.02949L4.72332 5.7593L4.63325 5.71836C4.56775 5.7402 4.5159 5.74839 4.47769 5.74293C4.44494 5.73201 4.42311 5.72382 4.41219 5.71836C4.37944 5.72928 4.33577 5.72109 4.28119 5.6938C4.23207 5.66105 4.18567 5.62011 4.142 5.57099C4.1038 5.52186 4.07923 5.48093 4.06832 5.44818C4.0574 5.42634 4.04921 5.39905 4.04375 5.3663C4.04375 5.32809 4.04375 5.30899 4.04375 5.30899C4.04921 5.27624 4.09561 5.24349 4.18294 5.21074C4.27027 5.17253 4.38217 5.13705 4.51863 5.1043C4.66055 5.07155 4.81065 5.04699 4.96894 5.03061C5.12723 5.01424 5.27461 5.01151 5.41107 5.02243C5.55299 5.03334 5.72765 5.06609 5.93507 5.12068C6.14249 5.17526 6.31988 5.22984 6.46726 5.28443C6.64193 5.34993 6.83024 5.46182 7.0322 5.62011C7.23416 5.77841 7.41701 5.96672 7.58076 6.18505C7.74997 6.40339 7.86187 6.63264 7.91645 6.8728C7.93282 6.9383 7.9492 7.0311 7.96557 7.15118C7.98195 7.27126 7.99014 7.38862 7.99014 7.50324C7.99559 7.61241 7.98468 7.68337 7.95739 7.71612C7.94647 7.73795 7.93828 7.76524 7.93282 7.79799C7.93282 7.82529 7.94374 7.84439 7.96557 7.85531C7.96012 7.87168 7.94101 7.93445 7.90826 8.04362C7.87551 8.14733 7.84549 8.23739 7.8182 8.31381C7.80728 8.45572 7.76907 8.61947 7.70357 8.80506C7.64353 8.99064 7.5753 9.16804 7.49889 9.33725C7.42793 9.501 7.36516 9.62927 7.31057 9.72206C7.28874 9.72206 7.26691 9.72752 7.24507 9.73844C7.2287 9.74389 7.23143 9.74935 7.25326 9.75481C7.25326 9.7821 7.22324 9.83396 7.1632 9.91037C7.14136 9.92675 7.10588 9.96769 7.05676 10.0332C7.01309 10.0932 6.97761 10.1342 6.95032 10.156C6.94486 10.1942 6.92849 10.227 6.9012 10.2542C6.8739 10.2761 6.84934 10.287 6.82751 10.287C6.82751 10.287 6.82205 10.287 6.81113 10.287C6.80568 10.287 6.80295 10.2979 6.80295 10.3197C6.75928 10.3852 6.68559 10.4699 6.58188 10.5736C6.47818 10.6773 6.36082 10.7837 6.22982 10.8929C6.09882 11.002 5.96782 11.103 5.83682 11.1958C5.70582 11.2886 5.58574 11.3568 5.47657 11.4005C5.42199 11.4387 5.36467 11.4687 5.30463 11.4906C5.24459 11.5179 5.18728 11.5451 5.13269 11.5724C5.1054 11.5943 5.02626 11.6134 4.89526 11.6298C4.76425 11.6461 4.62507 11.6598 4.47769 11.6707C4.33577 11.6816 4.22388 11.6953 4.142 11.7116ZM9.062 11.3678C8.83821 11.3678 8.63352 11.3295 8.44793 11.2531C8.26235 11.1822 8.14772 11.0211 8.10406 10.7701C8.10952 10.6336 8.11497 10.549 8.12043 10.5162C8.13135 10.478 8.15318 10.4589 8.18593 10.4589C8.20777 10.4589 8.22414 10.4562 8.23506 10.4507C8.25143 10.4398 8.25962 10.4153 8.25962 10.3771C8.26508 10.2843 8.27872 10.1751 8.30056 10.0496C8.32785 9.91856 8.35787 9.79848 8.39062 9.68931C8.42883 9.57468 8.46431 9.49554 8.49706 9.45187C8.52981 9.34271 8.5762 9.1926 8.63625 9.00156C8.69629 8.81052 8.75906 8.61129 8.82456 8.40387C8.89552 8.19099 8.95829 7.99722 9.01287 7.82256C9.07291 7.64789 9.11658 7.52508 9.14387 7.45412C9.17116 7.38316 9.21483 7.28491 9.27487 7.15937C9.33491 7.02837 9.37585 6.9192 9.39769 6.83187C9.43589 6.7227 9.47683 6.60535 9.5205 6.4798C9.56416 6.3488 9.6051 6.24782 9.64331 6.17687L9.7825 5.93124L9.56144 5.74293C9.48502 5.66651 9.44681 5.59009 9.44681 5.51368C9.44681 5.42634 9.49866 5.35266 9.60237 5.29261C9.71154 5.23257 9.83708 5.19163 9.979 5.1698C10.0336 5.15888 10.0964 5.15343 10.1673 5.15343C10.2437 5.15343 10.3147 5.15343 10.3802 5.15343C10.5385 5.15343 10.6968 5.15888 10.8551 5.1698C11.0134 5.18072 11.1444 5.19436 11.2481 5.21074C11.3081 5.22166 11.3845 5.24622 11.4773 5.28443C11.5701 5.32263 11.6602 5.3663 11.7475 5.41543C11.8348 5.46455 11.8976 5.51095 11.9358 5.55461C11.9358 5.55461 11.9467 5.56553 11.9686 5.58736C11.9904 5.60374 12.0122 5.61193 12.0341 5.61193C12.0668 5.6283 12.1241 5.69107 12.206 5.80024C12.2933 5.90941 12.3779 6.03222 12.4598 6.16868C12.5417 6.29968 12.5908 6.41976 12.6072 6.52893C12.6236 6.6108 12.6345 6.70087 12.6399 6.79912C12.6509 6.89191 12.6563 6.97651 12.6563 7.05293C12.6509 7.18393 12.6427 7.30947 12.6318 7.42956C12.6263 7.54964 12.6127 7.68064 12.5908 7.82256C12.5744 7.9481 12.5444 8.08729 12.5008 8.24012C12.4625 8.3875 12.4189 8.53214 12.3698 8.67406C12.3261 8.81052 12.2851 8.92241 12.2469 9.00975C12.2142 9.09708 12.1924 9.14075 12.1814 9.14075C12.1487 9.14075 12.1296 9.14893 12.1241 9.16531C12.1187 9.18168 12.1159 9.20079 12.1159 9.22262C12.1105 9.27721 12.075 9.36454 12.0095 9.48462C11.944 9.59925 11.8621 9.72479 11.7639 9.86125C11.6656 9.99225 11.5619 10.1151 11.4528 10.2297C11.349 10.3443 11.2535 10.4289 11.1662 10.4835C10.9915 10.6745 10.7814 10.8356 10.5358 10.9666C10.2901 11.103 10.0363 11.204 9.77431 11.2695C9.51777 11.335 9.28033 11.3678 9.062 11.3678ZM9.26669 10.5408C9.32127 10.5408 9.4086 10.5381 9.52869 10.5326C9.65423 10.5217 9.75521 10.5026 9.83162 10.4753C9.96262 10.4426 10.1209 10.3716 10.3065 10.2624C10.4921 10.1478 10.6613 10.0141 10.8141 9.86125C10.9833 9.68658 11.1362 9.50646 11.2726 9.32087C11.4091 9.12983 11.5428 8.86783 11.6738 8.53487C11.7666 8.31654 11.8321 8.09547 11.8703 7.87168C11.914 7.64789 11.9358 7.44593 11.9358 7.26581C11.9358 6.94376 11.8758 6.68449 11.7557 6.48799C11.6356 6.28603 11.48 6.14957 11.289 6.07862C11.2126 6.05132 11.1334 6.03222 11.0516 6.0213C10.9697 6.00493 10.8905 5.99674 10.8141 5.99674C10.7595 5.99674 10.7022 5.99947 10.6422 6.00493C10.5876 6.01039 10.5521 6.01857 10.5358 6.02949C10.4921 6.02949 10.443 6.07316 10.3884 6.16049C10.3392 6.24782 10.2929 6.35699 10.2492 6.48799C10.2055 6.61899 10.1646 6.74726 10.1264 6.8728C10.0827 7.0311 10.0418 7.15937 10.0036 7.25762C9.96535 7.35041 9.92714 7.44593 9.88894 7.54418C9.85073 7.64243 9.80433 7.78162 9.74975 7.96174C9.67333 8.10912 9.60783 8.25922 9.55325 8.41206C9.50412 8.55943 9.46319 8.69043 9.43044 8.80506C9.39769 8.91423 9.37312 8.99064 9.35675 9.03431C9.324 9.09981 9.28852 9.19806 9.25031 9.32906C9.21756 9.4546 9.18481 9.59106 9.15206 9.73844C9.12477 9.88581 9.10021 10.0223 9.07837 10.1478C9.062 10.2734 9.05381 10.3689 9.05381 10.4344C9.05381 10.478 9.07564 10.5081 9.11931 10.5244C9.16298 10.5354 9.2121 10.5408 9.26669 10.5408Z" fill="white"/>
</svg>
